<?xml version="1.0" encoding="UTF-8" standalone="no"?>
<!DOCTYPE svg PUBLIC "-//W3C//DTD SVG 1.1//EN" "http://www.w3.org/Graphics/SVG/1.1/DTD/svg11.dtd">
<svg width="100%" height="100%" viewBox="0 0 1624 348" version="1.1" xmlns="http://www.w3.org/2000/svg" xmlns:xlink="http://www.w3.org/1999/xlink" xml:space="preserve" xmlns:serif="http://www.serif.com/" style="fill-rule:evenodd;clip-rule:evenodd;stroke-linejoin:round;stroke-miterlimit:2;">
    <g transform="matrix(1,0,0,1,-538.104225,-582.722801)">
        <g transform="matrix(0.276273,0.118919,-0.118919,0.276273,480.461868,441.858275)">
            <path d="M949.827,1110.78C873.435,1076.61 817.681,1029.592 777.036,990.394C728.647,943.728 675.735,862.257 650.526,752.718C626.427,767.517 594.942,795.444 576.852,824.699C575.45,827.186 572.768,828.672 569.916,828.542C567.065,828.411 564.53,826.686 563.361,824.082C550.123,792.182 520.337,709.713 518.918,612.301C514.922,457.468 617.621,282.712 783.714,179.737C864.492,129.656 953.565,100.803 1046.262,91.45C1055.408,79.354 1068.96,70.552 1085.036,67.686C1111.458,62.975 1189.867,65.284 1218.337,69.697C1238.868,72.88 1255.92,85.917 1264.71,103.74C1345.199,120.302 1425.709,149.768 1503.444,191.103C1732.229,312.759 1868.403,594.682 1815.944,801.011C1761.676,1021.879 1551.427,1142.892 1361.014,1126.079C1351.114,1129.825 1340.877,1133.293 1330.31,1136.45C1290.703,1148.285 1246.447,1155.767 1197.904,1157.234C1176.225,1157.89 1155.43,1157.476 1135.484,1156.127C1122.465,1171.626 1102.299,1180.266 1081.188,1178.038C1055.702,1175.347 1015.315,1166.981 988.457,1156.594C967.973,1148.673 953.923,1131.013 949.827,1110.78Z" style="fill:rgb(31,42,68);"/>
        </g>
        <g transform="matrix(0.276273,0.118919,-0.118919,0.276273,481.461868,443.858275)">
            <path d="M1031.969,669.279C1031.891,669.923 1031.404,670.442 1030.766,670.561C1030.129,670.679 1029.488,670.37 1029.184,669.796C1009.625,633.602 968.085,574.712 897.886,555.733C797.715,528.65 673.525,594.382 615.768,668.367C614.611,669.889 612.685,670.613 610.812,670.228C608.94,669.843 607.454,668.419 606.992,666.564C574.703,530.199 665.077,347.66 825.438,251.623C894.769,210.102 965.347,185.008 1036.873,174.439C1037.522,174.344 1038.183,174.515 1038.705,174.913C1039.226,175.311 1039.566,175.903 1039.645,176.555C1057.156,320.489 1052.063,497.215 1031.969,669.279ZM1276.004,192.485C1275.966,191.845 1276.238,191.225 1276.734,190.819C1277.23,190.412 1277.891,190.268 1278.512,190.432C1340.372,206.792 1402.671,232.001 1465.23,264.915C1660.014,367.395 1779.949,605.272 1735.389,780.53C1690.83,955.787 1542.434,1044.521 1426.486,1051.742C1423.573,1051.923 1423.136,1047.027 1425.74,1045.708C1536.682,989.541 1566.211,889.908 1549.79,818.147C1525.989,714.13 1423.142,667.508 1348.111,673.744C1308.61,677.028 1274.15,692.284 1249.066,712.113C1248.659,712.44 1248.094,712.484 1247.642,712.223C1247.19,711.962 1246.945,711.45 1247.026,710.935C1273.442,540.601 1285.82,361.06 1276.004,192.485ZM1229.968,809.705C1230.075,809.138 1230.326,808.609 1230.698,808.169C1246.813,789.234 1276.98,764.92 1331.199,754.916C1396.935,742.787 1474.135,778.972 1483.416,873.424C1492,960.777 1381.232,1068.538 1195.393,1074.155C1185.414,1074.457 1175.654,1074.492 1166.109,1074.281C1190.377,992.682 1212.15,903.285 1229.968,809.705ZM966.357,1026.295C909.252,997.767 866.602,961.299 834.734,930.565C771.989,870.055 716.381,756.818 740.459,693.449C741.018,692.1 742.263,691.159 743.713,690.988C745.163,690.818 746.592,691.444 747.449,692.627C802.107,766.522 913.986,818.764 1011.661,796.04C1012.281,795.893 1012.934,796.064 1013.401,796.498C1013.868,796.932 1014.087,797.571 1013.985,798.2C1000.871,878.921 984.709,956.355 966.357,1026.295Z" style="fill:rgb(216,83,28);"/>
        </g>
        <g transform="matrix(0.293395,0.126289,-0.126289,0.293395,469.988284,415.018879)">
            <path d="M1214.897,751.294C1213.631,753.64 1212.494,755.988 1211.491,758.329C1211.582,758.183 1212.926,755.62 1214.897,751.294Z" style="fill:rgb(216,83,28);"/>
        </g>
        <g transform="matrix(0.109665,0.103188,-0.212679,0.226028,724.91012,469.812727)">
            <path d="M859.192,239.584C856.817,237.473 856.285,234.989 857.714,232.687C859.143,230.384 862.414,228.456 866.796,227.333C912.314,217.22 1000.983,203.332 1049.051,197.715C1057.462,196.834 1066.015,198.882 1069.692,202.656C1346.471,487.875 1487.935,850.94 1507.352,1126.011C1507.637,1130.214 1501.742,1133.925 1493.293,1134.862C1457.386,1138.632 1408.768,1142.03 1368.851,1142.57C1359.234,1142.618 1351.222,1139.006 1350.618,1134.349C1313.881,861.924 1122.32,475.911 859.192,239.584Z" style="fill:rgb(255,217,61);"/>
            <path d="M836.12,245.696L832.651,241.718L830.88,237.527L830.835,233.249L832.543,229.009L835.944,225.017L840.85,221.463L847.096,218.443L854.516,216.056C854.955,215.943 855.4,215.837 855.852,215.736C902.57,205.357 993.561,191.081 1042.896,185.315L1043.507,185.248L1058.653,184.934L1072.778,187.002L1084.756,191.183L1093.458,197.205L1093.476,197.223C1371.756,483.989 1514.102,849.012 1533.624,1125.574L1533.626,1125.592L1533.194,1129.382L1531.442,1133.01L1524.42,1139.447L1513.38,1144.381L1506.596,1146.127L1499.152,1147.296L1498.853,1147.328C1461.554,1151.244 1411.048,1154.758 1369.584,1155.319L1369.126,1155.323L1360.512,1154.959L1352.38,1153.824L1344.973,1152L1338.46,1149.567L1332.982,1146.594L1328.689,1143.143L1325.761,1139.292L1324.386,1135.182C1287.869,864.377 1097.673,480.639 836.12,245.696ZM859.192,239.584C1122.32,475.911 1313.881,861.924 1350.618,1134.349C1351.222,1139.006 1359.234,1142.618 1368.851,1142.57C1408.768,1142.03 1457.386,1138.632 1493.293,1134.862C1501.742,1133.925 1507.637,1130.214 1507.352,1126.011C1487.935,850.94 1346.471,487.875 1069.692,202.656C1066.015,198.882 1057.462,196.834 1049.051,197.715C1000.983,203.332 912.314,217.22 866.796,227.333C862.414,228.456 859.143,230.384 857.714,232.687C856.285,234.989 856.817,237.473 859.192,239.584Z" style="fill:rgb(31,42,68);"/>
        </g>
        <g transform="matrix(3.14834,0.563778,-0.563778,3.14834,-11426.08928,-10528.829587)">
            <circle cx="4390.84" cy="2788.318" r="4.707" style="fill:rgb(31,42,68);"/>
        </g>
        <g transform="matrix(2.29458,0.410894,-0.410894,2.29458,-8105.516923,-7430.793223)">
            <circle cx="4390.84" cy="2788.318" r="4.707" style="fill:rgb(31,42,68);"/>
        </g>
        <g transform="matrix(1.678308,0.300537,-0.300537,1.678308,-5670.095036,-5218.67199)">
            <circle cx="4390.84" cy="2788.318" r="4.707" style="fill:rgb(31,42,68);"/>
        </g>
    </g>
    <g transform="matrix(1,0,0,1,-538.104225,-582.722801)">
        <g transform="matrix(7.276478,0,0,2.859175,-30641.58351,-5202.684707)">
            <path d="M4357.213,2055.987C4350.905,2055.987 4346.375,2067.606 4346.375,2085.877C4346.375,2104.413 4350.975,2115.766 4357.806,2115.766C4362.929,2115.766 4365.752,2108.05 4366.762,2104.325L4363.835,2096.52C4362.894,2099.89 4360.907,2104.857 4357.945,2104.857C4354.53,2104.857 4351.358,2099.358 4351.358,2085.877C4351.358,2073.992 4353.972,2066.896 4357.283,2066.896C4360.733,2066.896 4362.023,2074.169 4362.023,2079.579L4366.588,2077.806C4366.588,2068.404 4364.114,2055.987 4357.213,2055.987Z" style="fill:rgb(31,42,68);fill-rule:nonzero;"/>
        </g>
        <g transform="matrix(7.276478,0,0,2.859175,-30636.724335,-5202.684707)">
            <path d="M4367.878,2115.145L4372.652,2115.145L4372.652,2050.673L4367.878,2052.528L4367.878,2115.145Z" style="fill:rgb(31,42,68);fill-rule:nonzero;"/>
        </g>
        <g transform="matrix(7.276478,0,0,2.859175,-30631.865161,-5202.684707)">
            <path d="M4374.728,2090C4374.681,2089.546 4374.534,2087.987 4374.534,2086.054C4374.534,2078.072 4377.287,2072.75 4381.818,2072.75C4386.662,2072.75 4389.276,2078.959 4389.276,2089.513L4389.276,2103.172C4389.276,2105.123 4389.554,2105.921 4390.182,2105.921C4390.391,2105.921 4390.6,2105.832 4390.774,2105.655L4390.983,2114.879C4390.983,2114.879 4389.973,2115.677 4388.648,2115.677C4386.383,2115.677 4385.163,2113.46 4384.85,2109.025C4384.327,2111.597 4382.968,2115.677 4379.552,2115.677C4375.998,2115.677 4373.976,2111.154 4373.976,2104.147C4373.976,2093.77 4378.263,2091.198 4384.397,2090.843L4384.606,2090.843L4384.606,2088.981C4384.606,2084.724 4383.63,2081.885 4381.609,2081.885C4379.796,2081.885 4378.786,2083.748 4378.786,2086.763C4378.786,2087.384 4378.821,2087.916 4378.925,2088.36L4378.868,2088.384L4374.728,2090ZM4380.912,2106.719C4383.212,2106.719 4384.606,2103.704 4384.606,2100.333L4384.606,2096.963L4384.397,2096.963C4380.458,2097.229 4378.611,2098.648 4378.611,2102.551C4378.611,2105.3 4379.483,2106.719 4380.912,2106.719Z" style="fill:rgb(31,42,68);"/>
        </g>
        <g transform="matrix(7.276478,0,0,2.859175,-30629.865161,-5202.684707)">
            <path d="M4411.022,2073.282L4408.722,2097.939C4408.478,2100.245 4408.339,2102.462 4408.269,2103.615L4408.165,2103.615C4408.095,2102.462 4407.886,2100.067 4407.677,2097.939L4405.063,2073.282L4400.811,2073.282L4398.162,2098.116C4397.919,2100.245 4397.779,2101.93 4397.675,2103.615L4397.57,2103.615C4397.465,2101.93 4397.361,2100.422 4397.152,2098.116L4394.782,2073.282L4389.798,2073.282L4394.677,2115.145L4400.114,2115.145L4402.554,2093.859C4402.693,2092.529 4402.832,2090.134 4402.867,2089.158L4402.972,2089.158C4403.007,2090.134 4403.181,2092.529 4403.285,2093.859L4405.655,2115.145L4411.127,2115.145L4415.866,2073.282L4411.022,2073.282Z" style="fill:rgb(31,42,68);fill-rule:nonzero;"/>
        </g>
        <g transform="matrix(7.276478,0,0,2.859175,-30627.865161,-5202.684707)">
            <path d="M4430.643,2056.608L4422.384,2056.608L4422.384,2115.145L4427.332,2115.145L4427.332,2098.116L4431.305,2098.116C4436.498,2098.116 4440.297,2091.198 4440.297,2077.362C4440.297,2063.526 4436.672,2056.608 4430.643,2056.608ZM4430.364,2088.183L4427.332,2088.183L4427.332,2066.542L4430.155,2066.542C4433.57,2066.542 4435.278,2070.71 4435.278,2077.362C4435.278,2084.369 4433.501,2088.183 4430.364,2088.183Z" style="fill:rgb(31,42,68);fill-rule:nonzero;"/>
        </g>
        <g transform="matrix(7.276478,0,0,2.859175,-30625.865161,-5202.684707)">
            <path d="M4457.06,2105.655C4456.885,2105.832 4456.676,2105.921 4456.467,2105.921C4455.84,2105.921 4455.561,2105.123 4455.561,2103.172L4455.561,2089.513C4455.561,2078.959 4452.947,2072.75 4448.103,2072.75C4443.573,2072.75 4440.819,2078.072 4440.819,2086.054C4440.819,2088.36 4441.028,2090.134 4441.028,2090.134L4445.211,2088.36C4445.106,2087.916 4445.071,2087.384 4445.071,2086.763C4445.071,2083.748 4446.082,2081.885 4447.894,2081.885C4449.915,2081.885 4450.891,2084.724 4450.891,2088.981L4450.891,2090.843L4450.682,2090.843C4444.548,2091.198 4440.262,2093.77 4440.262,2104.147C4440.262,2111.154 4442.283,2115.677 4445.838,2115.677C4449.253,2115.677 4450.612,2111.597 4451.135,2109.025C4451.449,2113.46 4452.668,2115.677 4454.934,2115.677C4456.258,2115.677 4457.269,2114.879 4457.269,2114.879L4457.06,2105.655ZM4447.197,2106.719C4445.768,2106.719 4444.897,2105.3 4444.897,2102.551C4444.897,2098.648 4446.744,2097.229 4450.682,2096.963L4450.891,2096.963L4450.891,2100.333C4450.891,2103.704 4449.497,2106.719 4447.197,2106.719Z" style="fill:rgb(31,42,68);fill-rule:nonzero;"/>
        </g>
        <g transform="matrix(7.276478,0,0,2.859175,-30626.724335,-5202.684707)">
            <path d="M4469.785,2113.625C4468.995,2114.507 4467.574,2115.677 4465.598,2115.677C4461.277,2115.677 4459.011,2109.735 4459.011,2097.85L4459.011,2082.506L4456.502,2082.506L4456.502,2073.282L4459.22,2073.282L4459.22,2061.486L4463.821,2059.701L4463.821,2073.282L4469.606,2073.282L4469.606,2082.506L4463.821,2082.506L4463.821,2097.318C4463.821,2102.906 4464.657,2105.389 4466.504,2105.389C4468.177,2105.389 4469.153,2103.172 4469.153,2103.172L4469.158,2103.206L4469.785,2113.625Z" style="fill:rgb(31,42,68);"/>
        </g>
        <g transform="matrix(7.276478,0,0,2.859175,-30621.865161,-5202.684707)">
            <path d="M4479.712,2072.75C4477.238,2072.75 4475.949,2076.83 4475.321,2082.151L4475.182,2082.151C4475.182,2080.378 4474.938,2075.677 4474.589,2072.927L4470.86,2073.282L4470.86,2115.145L4475.635,2115.145L4475.635,2094.923C4475.635,2087.916 4477.203,2084.191 4479.015,2084.191C4479.747,2084.191 4480.34,2084.724 4480.897,2085.699L4482.152,2073.992C4481.42,2073.193 4480.653,2072.75 4479.712,2072.75Z" style="fill:rgb(31,42,68);fill-rule:nonzero;"/>
        </g>
        <g transform="matrix(7.276478,0,0,2.859175,-30617.005986,-5202.684707)">
            <path d="M4489.714,2072.75C4484.487,2072.75 4481.037,2081.619 4481.037,2094.214C4481.037,2106.808 4484.487,2115.677 4489.714,2115.677C4494.907,2115.677 4498.357,2106.808 4498.357,2094.214C4498.357,2081.619 4494.907,2072.75 4489.714,2072.75ZM4489.714,2105.744C4487.345,2105.744 4485.881,2101.043 4485.881,2094.214C4485.881,2087.473 4487.345,2082.684 4489.714,2082.684C4492.049,2082.684 4493.513,2087.473 4493.513,2094.214C4493.513,2101.043 4492.049,2105.744 4489.714,2105.744Z" style="fill:rgb(31,42,68);fill-rule:nonzero;"/>
        </g>
        <g transform="matrix(7.276478,0,0,2.859175,-30615.005986,-5202.684707)">
            <path d="M4499.682,2115.145L4504.456,2115.145L4504.456,2050.652L4499.682,2052.528L4499.682,2115.145Z" style="fill:rgb(31,42,68);fill-rule:nonzero;"/>
        </g>
    </g>
</svg>
